<?xml version="1.0" encoding="utf-8"?>
<!-- Generator: Adobe Illustrator 22.1.0, SVG Export Plug-In . SVG Version: 6.00 Build 0)  -->
<svg version="1.1" id="Layer_1" xmlns="http://www.w3.org/2000/svg" xmlns:xlink="http://www.w3.org/1999/xlink" x="0px" y="0px"
	 viewBox="0 0 100 100.1" style="enable-background:new 0 0 100 100.1;" xml:space="preserve">
<style type="text/css">
	.st0{fill:none;}
</style>
<title>Asset 287</title>
<g>
	<g>
		<rect class="st0" width="100" height="100"/>
		<path d="M53.7,92.7h-25c-5.2,0-9.4-4.2-9.4-9.4V16.7c0-5.2,4.2-9.4,9.4-9.4h25c2-0.1,3.6-1.8,3.5-3.8C57,1.6,55.5,0.1,53.7,0h-25
			C19.5,0,12,7.5,12,16.7v66.7c0,9.2,7.5,16.7,16.7,16.7h25c2-0.1,3.6-1.8,3.5-3.8C57,94.3,55.5,92.8,53.7,92.7z"/>
		<path d="M87.4,48.5L71.3,31.4c-0.5-0.6-1.3-0.9-2.1-0.9c-0.8,0-1.5,0.3-2.1,0.8c-1.2,1.1-1.2,3-0.1,4.2L77.9,47H37.8
			c-1.7,0-3,1.3-3,3c0,0.1,0,0.2,0,0.2c0.1,1.6,1.5,2.8,3.1,2.8h39.9L67,64.5c-1.1,1.2-1,3.1,0.2,4.2c0.5,0.5,1.2,0.7,1.9,0.8h0.1
			c0.8,0,1.5-0.4,2.1-0.9l16.1-17.1C88.2,50.7,88.2,49.4,87.4,48.5z"/>
	</g>
</g>
</svg>
