<?xml version="1.0" encoding="utf-8"?>
<!-- Generator: Adobe Illustrator 22.1.0, SVG Export Plug-In . SVG Version: 6.00 Build 0)  -->
<svg version="1.1"
	 id="Layer_1" xmlns:cc="http://creativecommons.org/ns#" xmlns:dc="http://purl.org/dc/elements/1.1/" xmlns:inkscape="http://www.inkscape.org/namespaces/inkscape" xmlns:rdf="http://www.w3.org/1999/02/22-rdf-syntax-ns#" xmlns:sodipodi="http://sodipodi.sourceforge.net/DTD/sodipodi-0.dtd" xmlns:svg="http://www.w3.org/2000/svg"
	 xmlns="http://www.w3.org/2000/svg" xmlns:xlink="http://www.w3.org/1999/xlink" x="0px" y="0px" viewBox="0 0 47.7 48"
	 style="enable-background:new 0 0 47.7 48;" xml:space="preserve">
<g transform="translate(0,-952.36218)">
	<path d="M20.8,952.4c-1,0.1-1.6,0.7-1.9,1.4l-1.3,4.4c-0.7,0.3-1.4,0.5-2.1,0.9l-4-2.2c-0.8-0.4-1.8-0.3-2.4,0.3l-4.3,4.3
		c-0.6,0.6-0.7,1.6-0.3,2.4l2.2,4.1c-0.3,0.7-0.7,1.4-0.9,2.1l-4.4,1.3c-0.8,0.2-1.4,1.1-1.4,1.9v6.2c0,0.9,0.6,1.7,1.4,1.9l4.4,1.2
		c0.3,0.7,0.6,1.4,0.9,2.1l-2.2,4.1c-0.4,0.7-0.3,1.8,0.3,2.4l4.3,4.3c0.6,0.6,1.6,0.8,2.4,0.3l4-2.2c0.7,0.3,1.4,0.6,2.2,0.9
		l1.2,4.4c0.2,0.8,1.1,1.5,1.9,1.5h6.1c0.9,0,1.7-0.6,1.9-1.5l1.2-4.4c0.7-0.3,1.5-0.6,2.2-0.9l4,2.2c0.8,0.4,1.8,0.3,2.4-0.3
		l4.3-4.3c0.6-0.6,0.7-1.6,0.3-2.4l-2.2-4.1c0.3-0.7,0.7-1.4,0.9-2.1l4.4-1.2c0.8-0.2,1.4-1.1,1.4-1.9v-6.2c0-0.9-0.6-1.7-1.4-1.9
		l-4.4-1.3c-0.3-0.7-0.6-1.4-0.9-2.1l2.2-4.1c0.4-0.7,0.3-1.8-0.3-2.4l-4.3-4.3c-0.6-0.6-1.6-0.8-2.4-0.3l-4,2.2
		c-0.7-0.3-1.4-0.6-2.1-0.9l-1.3-4.4c-0.2-0.8-1.1-1.4-1.9-1.4L20.8,952.4L20.8,952.4z M22.3,956.4h3.1l1.1,3.9
		c0.2,0.7,0.7,1.2,1.4,1.4c1.2,0.3,2.4,0.8,3.5,1.4c0.6,0.3,1.4,0.4,2,0l3.5-2l2.2,2.2l-2,3.6c-0.3,0.6-0.3,1.3,0,1.9
		c0.6,1.1,1.1,2.2,1.5,3.5c0.2,0.7,0.7,1.2,1.4,1.4l3.9,1.1v3.1L40,979c-0.7,0.2-1.2,0.7-1.4,1.4c-0.3,1.2-0.8,2.4-1.5,3.5
		c-0.3,0.6-0.3,1.4,0,2l2,3.5l-2.2,2.2l-3.6-2c-0.6-0.3-1.4-0.3-2,0c-1.1,0.6-2.2,1.1-3.5,1.4c-0.7,0.2-1.2,0.7-1.4,1.4l-1.1,3.9
		h-3.1l-1.1-3.9c-0.2-0.7-0.7-1.2-1.4-1.4c-1.2-0.3-2.4-0.8-3.5-1.4c-0.6-0.3-1.4-0.4-2,0l-3.6,2l-2.2-2.2l2-3.5
		c0.3-0.6,0.3-1.4,0-2c-0.6-1.1-1.1-2.2-1.5-3.5c-0.2-0.7-0.7-1.2-1.4-1.4l-3.9-1.1v-3.1l3.9-1.1c0.7-0.2,1.2-0.7,1.4-1.4
		c0.3-1.2,0.8-2.4,1.5-3.5c0.3-0.6,0.3-1.3,0-1.9l-2-3.6l2.2-2.2l3.5,2c0.6,0.3,1.4,0.3,2,0c1.1-0.6,2.2-1.1,3.5-1.4
		c0.7-0.2,1.2-0.7,1.4-1.4C21.2,960.2,22.3,956.4,22.3,956.4z M23.9,966.4c-5.5,0-10,4.5-10,10s4.5,10,10,10s10-4.5,10-10
		S29.4,966.4,23.9,966.4z M23.9,970.4c3.3,0,6,2.7,6,6s-2.7,6-6,6s-6-2.7-6-6C17.9,973,20.6,970.4,23.9,970.4z"/>
</g>
</svg>
